<?xml version="1.0" encoding="utf-8"?>
<!-- Generator: Adobe Illustrator 25.4.1, SVG Export Plug-In . SVG Version: 6.00 Build 0)  -->
<svg version="1.1" id="Layer_1" xmlns="http://www.w3.org/2000/svg" xmlns:xlink="http://www.w3.org/1999/xlink" x="0px" y="0px"
	 viewBox="0 0 262.93 100.88" style="enable-background:new 0 0 262.93 100.88;" xml:space="preserve">
<style type="text/css">
	.st0{fill:#FFFFFF;}
	.st1{fill:#007D7C;}
</style>
<g>
	<g>
		<path class="st0" d="M96.78,74.72c-4.23,0-8.08-1.03-11.55-3.1c-3.47-2.07-6.25-4.84-8.32-8.32c-2.07-3.47-3.1-7.31-3.1-11.51
			c0-4.23,1.03-8.08,3.1-11.55c2.07-3.47,4.84-6.25,8.32-8.32c3.47-2.07,7.32-3.1,11.55-3.1c5.64,0,10.39,1.82,14.22,5.45
			c3.84,3.63,6.16,8.59,6.97,14.87c0.06,0.67,0.1,1.59,0.13,2.78v5.43H86.44c1.04,1.88,2.48,3.37,4.3,4.47
			c1.82,1.1,3.84,1.65,6.04,1.65c3.04,0,6.35-1.3,9.94-3.91c0.96-0.67,1.77-1.3,2.43-1.91l6.34,7.99l-2.87,2.69
			C107.99,72.59,102.71,74.72,96.78,74.72z M105.76,46.23c-1.68-4.11-4.68-6.17-8.99-6.17c-2.2,0-4.21,0.55-6.04,1.65
			c-1.82,1.1-3.26,2.61-4.3,4.52H105.76z"/>
		<path class="st0" d="M161.8,74.72h-11.07v-25.8c0-6.02-2.59-9.03-7.77-9.03c-3.27,0-5.91,1.2-7.9,3.6
			c-0.9,1.1-1.58,2.23-2.04,3.39c-0.46,1.16-0.74,2.19-0.82,3.08v24.75h-11.07v-45.9h11.07v2.78c3.18-1.85,6.82-2.78,10.9-2.78
			c5.59,0,10.1,1.78,13.55,5.34c3.45,3.56,5.17,8.37,5.17,14.42V74.72z"/>
		<path class="st0" d="M210.72,74.72h-11.07v-3.3c-3.76,2.2-7.72,3.3-11.86,3.3c-4.23,0-8.08-1.03-11.55-3.1
			c-3.47-2.07-6.25-4.84-8.32-8.32c-2.07-3.47-3.1-7.31-3.1-11.51c0-4.23,1.03-8.08,3.1-11.55c2.07-3.47,4.84-6.25,8.32-8.32
			c3.47-2.07,7.32-3.1,11.55-3.1c4.14,0,8.09,1.11,11.86,3.34V12.4h11.07V74.72z M187.79,63.43c3.21,0,5.96-1.14,8.23-3.41
			c2.27-2.27,3.41-5.02,3.41-8.23c0-3.21-1.14-5.96-3.41-8.25c-2.27-2.29-5.02-3.43-8.23-3.43c-3.24,0-6,1.14-8.27,3.43
			c-2.27,2.29-3.41,5.04-3.41,8.25c0,3.21,1.14,5.96,3.41,8.23C181.79,62.29,184.55,63.43,187.79,63.43z"/>
		<path class="st0" d="M236.67,74.72c-4.2,0-8.03-1.03-11.51-3.1c-3.47-2.07-6.25-4.84-8.32-8.32c-2.07-3.47-3.1-7.31-3.1-11.51
			c0-4.23,1.03-8.08,3.1-11.55c2.07-3.47,4.84-6.25,8.32-8.32c3.47-2.07,7.31-3.1,11.51-3.1c4.23,0,8.08,1.04,11.55,3.1
			c3.47,2.07,6.25,4.84,8.32,8.32c2.07,3.47,3.1,7.32,3.1,11.55c0,4.2-1.04,8.03-3.1,11.51c-2.07,3.47-4.84,6.25-8.32,8.32
			C244.75,73.68,240.89,74.72,236.67,74.72z M236.67,63.43c3.24,0,6-1.14,8.27-3.41c2.27-2.27,3.41-5.02,3.41-8.23
			c0-3.21-1.14-5.96-3.41-8.25c-2.27-2.29-5.03-3.43-8.27-3.43c-3.21,0-5.96,1.14-8.23,3.43c-2.27,2.29-3.41,5.04-3.41,8.25
			c0,3.21,1.14,5.96,3.41,8.23C230.71,62.29,233.45,63.43,236.67,63.43z"/>
	</g>
	<path class="st0" d="M40.94,44.23L40.94,44.23c8.88-14.3,22.38-35.96,22.38-35.96c0,0,0,0,0,0c3.29-5.9,10.75-8.01,16.64-4.71
		c5.9,3.29,8.01,10.75,4.71,16.64L54.82,68.45c0,0,0,0,0,0c-4.73,8.48-16.8,8.24-21.4,0c0,0,0,0,0,0L19.85,46.52
		C32.4,57.87,40.94,44.23,40.94,44.23z"/>
	<path class="st1" d="M3.55,20.2C0.26,14.3,2.37,6.85,8.27,3.56c5.9-3.29,13.35-1.18,16.64,4.71c0,0,0,0,0,0
		c0,0,10.61,17.02,19.21,30.85c-1.1,1.77-2.17,3.49-3.18,5.11c0,0-8.55,13.64-21.09,2.29L3.55,20.2z"/>
</g>
<g>
	<path class="st0" d="M79.65,94.97c-0.71,0-1.36-0.08-1.96-0.23c-0.59-0.15-1.09-0.32-1.5-0.51s-0.69-0.33-0.83-0.44l-0.24-0.17
		l0.57-1.38l0.36,0.23c0.17,0.11,0.42,0.25,0.76,0.4c0.34,0.16,0.75,0.3,1.23,0.43s1.02,0.19,1.61,0.19c1.12,0,2.01-0.21,2.68-0.63
		s1-0.98,1-1.67c0-0.4-0.13-0.72-0.4-0.96s-0.65-0.44-1.15-0.6c-0.5-0.16-1.1-0.32-1.8-0.46c-0.56-0.12-1.12-0.25-1.66-0.4
		c-0.54-0.15-1.05-0.35-1.5-0.61c-1.08-0.6-1.61-1.51-1.61-2.72c0-1.22,0.43-2.16,1.29-2.81s2.06-0.97,3.59-0.97
		c0.71,0,1.37,0.08,1.96,0.23c0.6,0.15,1.1,0.32,1.5,0.51c0.41,0.19,0.69,0.33,0.84,0.45l0.2,0.14l-0.35,1.4l-0.41-0.23
		c-0.24-0.13-0.55-0.27-0.93-0.43c-0.38-0.16-0.81-0.3-1.29-0.42s-0.99-0.18-1.53-0.18c-1.09,0-1.92,0.2-2.5,0.59
		c-0.58,0.4-0.87,0.96-0.87,1.71c0,0.49,0.15,0.88,0.44,1.16c0.29,0.29,0.71,0.52,1.26,0.71s1.2,0.35,1.96,0.51
		c0.53,0.11,1.06,0.23,1.59,0.38c0.53,0.15,1,0.34,1.44,0.58c0.43,0.24,0.78,0.55,1.05,0.94c0.27,0.39,0.4,0.88,0.4,1.48
		c0,0.65-0.15,1.21-0.44,1.69c-0.29,0.48-0.69,0.87-1.18,1.18c-0.5,0.31-1.05,0.54-1.67,0.69C80.93,94.89,80.3,94.97,79.65,94.97z"
		/>
	<path class="st0" d="M100.16,94.97h-1.47v-5.07c0-0.9-0.19-1.62-0.58-2.16c-0.39-0.54-0.92-0.81-1.59-0.81
		c-0.43,0-0.79,0.09-1.08,0.26c-0.52,0.32-0.89,0.8-1.12,1.47c-0.16,0.45-0.25,0.83-0.26,1.13c-0.01,0.02-0.01,1.75-0.01,5.19h-1.46
		v-5.07c0-0.9-0.19-1.62-0.58-2.16s-0.92-0.81-1.6-0.81c-0.43,0-0.78,0.09-1.07,0.26c-0.28,0.17-0.52,0.38-0.7,0.64
		c-0.18,0.26-0.32,0.52-0.42,0.79c-0.1,0.27-0.17,0.51-0.2,0.72s-0.06,0.36-0.06,0.43v5.2h-1.47v-9.51h1.47v0.99
		c0.69-0.66,1.52-0.99,2.51-0.99c0.69,0,1.28,0.15,1.79,0.45c0.51,0.3,0.91,0.73,1.22,1.27c0.16-0.27,0.38-0.53,0.65-0.79
		c0.27-0.26,0.61-0.48,1.01-0.66c0.4-0.18,0.88-0.27,1.44-0.27c1.09,0,1.96,0.39,2.61,1.16s0.97,1.8,0.97,3.09V94.97z"/>
	<path class="st0" d="M111.32,94.97h-1.47v-1.33c-0.95,0.88-2.05,1.33-3.29,1.33c-0.87,0-1.67-0.21-2.39-0.64
		c-0.72-0.43-1.29-1-1.72-1.72c-0.43-0.72-0.64-1.52-0.64-2.39c0-0.87,0.21-1.67,0.64-2.39s1-1.29,1.72-1.72
		c0.72-0.43,1.52-0.64,2.39-0.64c1.24,0,2.34,0.44,3.29,1.33v-1.33h1.47V94.97z M106.56,93.46c0.59,0,1.14-0.15,1.63-0.44
		s0.88-0.69,1.17-1.17c0.29-0.49,0.44-1.03,0.44-1.63c0-0.59-0.15-1.14-0.44-1.63c-0.29-0.49-0.68-0.88-1.17-1.17
		c-0.49-0.29-1.03-0.44-1.63-0.44s-1.14,0.15-1.63,0.44c-0.49,0.29-0.88,0.68-1.17,1.17c-0.29,0.49-0.44,1.03-0.44,1.63
		c0,0.6,0.15,1.14,0.44,1.63c0.29,0.49,0.68,0.88,1.17,1.17S105.96,93.46,106.56,93.46z"/>
	<path class="st0" d="M114.43,94.97h-1.47v-9.51h1.47v1.2c0.19-0.19,0.42-0.38,0.71-0.56s0.62-0.33,1.01-0.45
		c0.39-0.12,0.83-0.18,1.34-0.18c0.09,0,0.16,0,0.2,0c0.04,0,0.08,0,0.13,0s0.12,0.01,0.23,0.01v1.48
		c-0.09-0.01-0.16-0.01-0.21-0.02c-0.05-0.01-0.1-0.01-0.15-0.01c-0.05,0-0.14,0-0.26,0c-0.49,0-0.92,0.09-1.28,0.28
		c-0.37,0.19-0.67,0.43-0.91,0.72c-0.24,0.29-0.43,0.6-0.57,0.92c-0.13,0.32-0.21,0.63-0.24,0.91V94.97z"/>
	<path class="st0" d="M123.77,94.97c-0.81,0-1.49-0.26-2.04-0.78c-0.64-0.62-0.96-1.59-0.96-2.92v-3.99h-1.06v-1.46h1.06v-4.16h1.45
		v4.16h2.39v1.46h-2.39v4.04c0,0.67,0.08,1.17,0.24,1.5s0.37,0.54,0.62,0.64c0.26,0.11,0.53,0.16,0.82,0.16
		c0.19,0,0.32-0.01,0.41-0.02c0.09-0.02,0.19-0.04,0.29-0.06l0.27-0.06l0.16,1.28c-0.25,0.07-0.46,0.13-0.63,0.16
		C124.21,94.95,124.01,94.97,123.77,94.97z"/>
	<path class="st0" d="M138.03,94.97c-1.22,0-2.34-0.3-3.34-0.9c-1-0.6-1.81-1.4-2.41-2.41c-0.6-1-0.9-2.12-0.9-3.34
		c0-1.22,0.3-2.33,0.9-3.34c0.6-1.01,1.4-1.81,2.41-2.41c1.01-0.6,2.12-0.9,3.34-0.9c0.9,0,1.76,0.17,2.57,0.52s1.54,0.84,2.18,1.49
		l0.22,0.22l-0.94,1.22l-0.3-0.31c-1.06-1.08-2.31-1.61-3.74-1.61c-0.95,0-1.81,0.23-2.58,0.69c-0.78,0.46-1.4,1.08-1.86,1.86
		s-0.7,1.64-0.7,2.58c0,0.95,0.23,1.81,0.7,2.58s1.08,1.4,1.86,1.86c0.78,0.46,1.64,0.7,2.58,0.7c0.73,0,1.43-0.15,2.09-0.45
		c0.66-0.3,1.24-0.72,1.74-1.26l0.3-0.32l0.93,1.23c-0.37,0.39-0.73,0.72-1.08,1s-0.78,0.53-1.29,0.74
		C139.86,94.78,138.97,94.97,138.03,94.97z"/>
	<path class="st0" d="M145.29,83.91c-0.25,0-0.47-0.09-0.65-0.27s-0.27-0.4-0.27-0.65c0-0.26,0.09-0.48,0.27-0.66
		s0.4-0.27,0.65-0.27c0.26,0,0.48,0.09,0.66,0.27s0.27,0.4,0.27,0.66c0,0.25-0.09,0.47-0.27,0.65S145.55,83.91,145.29,83.91z
		 M146.02,94.97h-1.46v-9.51h1.46V94.97z"/>
	<path class="st0" d="M151.76,94.97c-0.81,0-1.49-0.26-2.04-0.78c-0.64-0.62-0.96-1.59-0.96-2.92v-3.99h-1.06v-1.46h1.06v-4.16h1.45
		v4.16h2.39v1.46h-2.39v4.04c0,0.67,0.08,1.17,0.24,1.5c0.16,0.32,0.36,0.54,0.62,0.64c0.26,0.11,0.53,0.16,0.82,0.16
		c0.19,0,0.32-0.01,0.41-0.02c0.09-0.02,0.19-0.04,0.29-0.06l0.27-0.06l0.16,1.28c-0.25,0.07-0.46,0.13-0.63,0.16
		S152,94.97,151.76,94.97z"/>
	<path class="st0" d="M155.88,98.76l1.84-4.56l-3.71-8.75h1.58l2.89,6.86l2.77-6.86h1.57l-5.39,13.29L155.88,98.76z"/>
	<path class="st0" d="M181.14,94.97h-1.6l-1.71-4.13h-5.34l-1.71,4.13h-1.6l5.53-13.3h0.89L181.14,94.97z M177.22,89.38l-2.06-4.99
		l-2.07,4.99H177.22z"/>
	<path class="st0" d="M190.72,94.97h-1.46v-1.33c-0.96,0.88-2.06,1.33-3.29,1.33c-0.87,0-1.67-0.21-2.39-0.64s-1.3-1-1.73-1.72
		c-0.43-0.72-0.64-1.52-0.64-2.39c0-0.87,0.21-1.67,0.64-2.39s1-1.29,1.73-1.72s1.52-0.64,2.39-0.64c1.24,0,2.33,0.44,3.29,1.33
		v-5.12h1.46V94.97z M185.97,93.46c0.59,0,1.14-0.15,1.63-0.44c0.49-0.29,0.88-0.69,1.17-1.17c0.29-0.49,0.44-1.03,0.44-1.63
		c0-0.59-0.15-1.14-0.44-1.63c-0.29-0.49-0.68-0.88-1.17-1.17c-0.49-0.29-1.04-0.44-1.63-0.44s-1.14,0.15-1.63,0.44
		c-0.49,0.29-0.88,0.68-1.17,1.17c-0.29,0.49-0.44,1.03-0.44,1.63c0,0.6,0.15,1.14,0.44,1.63c0.29,0.49,0.68,0.88,1.17,1.17
		C184.83,93.31,185.38,93.46,185.97,93.46z"/>
	<path class="st0" d="M197.23,94.97h-0.9l-3.96-9.51h1.58l2.83,6.85l2.84-6.85h1.57L197.23,94.97z"/>
	<path class="st0" d="M206.2,94.97c-0.87,0-1.67-0.21-2.39-0.64s-1.29-1-1.72-1.72c-0.43-0.72-0.64-1.52-0.64-2.39
		c0-0.87,0.21-1.67,0.64-2.39s1-1.29,1.72-1.72s1.52-0.64,2.39-0.64c1.18,0,2.15,0.37,2.94,1.12c0.78,0.75,1.26,1.78,1.42,3.08
		c0.02,0.21,0.03,0.64,0.03,1.29h-7.54c0.18,0.74,0.56,1.35,1.14,1.81s1.25,0.7,2.01,0.7c0.87,0,1.63-0.32,2.29-0.95l0.41-0.4
		l0.9,1.24l-0.31,0.29C208.53,94.53,207.43,94.97,206.2,94.97z M209,89.48c-0.16-0.8-0.48-1.42-0.96-1.86s-1.09-0.65-1.84-0.65
		c-0.76,0-1.43,0.23-2.01,0.7s-0.96,1.07-1.14,1.81H209z"/>
	<path class="st0" d="M213.7,94.97h-1.47v-9.51h1.47v1.2c0.19-0.19,0.42-0.38,0.71-0.56c0.29-0.18,0.62-0.33,1.01-0.45
		s0.83-0.18,1.34-0.18c0.09,0,0.16,0,0.2,0s0.08,0,0.13,0c0.05,0,0.12,0.01,0.23,0.01v1.48c-0.09-0.01-0.16-0.01-0.21-0.02
		c-0.05-0.01-0.1-0.01-0.15-0.01c-0.05,0-0.14,0-0.26,0c-0.49,0-0.92,0.09-1.28,0.28c-0.36,0.19-0.67,0.43-0.91,0.72
		c-0.25,0.29-0.43,0.6-0.57,0.92s-0.21,0.63-0.24,0.91V94.97z"/>
	<path class="st0" d="M223.03,94.97c-0.81,0-1.49-0.26-2.04-0.78c-0.64-0.62-0.96-1.59-0.96-2.92v-3.99h-1.06v-1.46h1.06v-4.16h1.45
		v4.16h2.39v1.46h-2.39v4.04c0,0.67,0.08,1.17,0.24,1.5c0.16,0.32,0.37,0.54,0.62,0.64c0.26,0.11,0.53,0.16,0.82,0.16
		c0.19,0,0.32-0.01,0.41-0.02s0.19-0.04,0.29-0.06l0.27-0.06l0.16,1.28c-0.25,0.07-0.46,0.13-0.63,0.16
		C223.48,94.95,223.28,94.97,223.03,94.97z"/>
	<path class="st0" d="M226.68,83.91c-0.25,0-0.47-0.09-0.65-0.27c-0.18-0.18-0.27-0.4-0.27-0.65c0-0.26,0.09-0.48,0.27-0.66
		c0.18-0.18,0.4-0.27,0.65-0.27c0.26,0,0.48,0.09,0.66,0.27c0.18,0.18,0.27,0.4,0.27,0.66c0,0.25-0.09,0.47-0.27,0.65
		C227.16,83.82,226.94,83.91,226.68,83.91z M227.41,94.97h-1.46v-9.51h1.46V94.97z"/>
	<path class="st0" d="M232.45,94.97c-0.5,0-0.96-0.05-1.38-0.16s-0.78-0.23-1.07-0.36c-0.29-0.13-0.49-0.23-0.6-0.32
		c-0.11-0.08-0.21-0.15-0.32-0.22l0.56-1.35l0.47,0.3c0.11,0.07,0.28,0.16,0.5,0.26c0.22,0.1,0.49,0.19,0.8,0.28
		c0.31,0.08,0.66,0.12,1.04,0.12c0.7,0,1.26-0.12,1.67-0.37c0.42-0.24,0.62-0.57,0.62-0.98c0-0.22-0.08-0.4-0.25-0.53
		c-0.17-0.13-0.41-0.25-0.73-0.34s-0.69-0.19-1.13-0.28c-0.39-0.08-0.78-0.18-1.16-0.29c-1.51-0.43-2.27-1.25-2.27-2.48
		c0-0.9,0.32-1.59,0.95-2.07s1.5-0.72,2.61-0.72c0.51,0,0.97,0.05,1.39,0.16c0.42,0.11,0.78,0.23,1.07,0.36s0.49,0.24,0.6,0.32
		l0.27,0.19l-0.34,1.38l-0.54-0.3c-0.77-0.45-1.59-0.68-2.45-0.68c-0.69,0-1.21,0.12-1.56,0.35c-0.35,0.24-0.52,0.57-0.52,0.99
		c0,0.28,0.09,0.51,0.28,0.68s0.45,0.3,0.8,0.41c0.35,0.11,0.76,0.21,1.24,0.32c0.37,0.07,0.74,0.16,1.09,0.26
		c1.42,0.4,2.13,1.15,2.13,2.25c0,0.58-0.16,1.07-0.49,1.49c-0.33,0.42-0.77,0.74-1.34,0.97C233.82,94.85,233.17,94.97,232.45,94.97
		z"/>
	<path class="st0" d="M238.61,83.91c-0.25,0-0.47-0.09-0.65-0.27c-0.18-0.18-0.27-0.4-0.27-0.65c0-0.26,0.09-0.48,0.27-0.66
		c0.18-0.18,0.4-0.27,0.65-0.27c0.26,0,0.48,0.09,0.66,0.27c0.18,0.18,0.27,0.4,0.27,0.66c0,0.25-0.09,0.47-0.27,0.65
		C239.09,83.82,238.87,83.91,238.61,83.91z M239.34,94.97h-1.46v-9.51h1.46V94.97z"/>
	<path class="st0" d="M249.32,94.97h-1.47v-5.41c0-0.8-0.19-1.44-0.57-1.92c-0.38-0.48-0.98-0.71-1.8-0.71
		c-0.49,0-0.92,0.09-1.28,0.28c-0.36,0.19-0.67,0.43-0.91,0.72c-0.25,0.29-0.43,0.6-0.57,0.92s-0.21,0.63-0.24,0.91v5.2h-1.47v-9.51
		h1.47v1.2c0.19-0.2,0.42-0.39,0.71-0.57c0.28-0.18,0.62-0.33,1.01-0.45s0.84-0.18,1.35-0.18c1.14,0,2.06,0.36,2.75,1.08
		s1.03,1.7,1.03,2.94V94.97z"/>
	<path class="st0" d="M255.95,98.75c-0.81,0-1.5-0.12-2.06-0.37c-0.56-0.24-1.03-0.55-1.39-0.9c-0.37-0.36-0.65-0.72-0.85-1.09
		l-0.22-0.37l1.36-0.51l0.16,0.26c0.64,1.05,1.64,1.58,3.01,1.58c0.93,0,1.66-0.28,2.21-0.85s0.83-1.3,0.85-2.21v-0.64
		c-0.95,0.88-2.05,1.33-3.29,1.33c-0.87,0-1.67-0.21-2.39-0.64s-1.29-1-1.72-1.72c-0.43-0.72-0.64-1.52-0.64-2.39
		c0-0.87,0.21-1.67,0.64-2.39s1-1.29,1.72-1.72s1.52-0.64,2.39-0.64c1.24,0,2.34,0.44,3.29,1.33v-1.33h1.47v8.82
		c0,1.25-0.43,2.32-1.29,3.21C258.29,98.33,257.21,98.75,255.95,98.75z M255.72,93.46c0.6,0,1.14-0.15,1.63-0.44
		c0.49-0.29,0.88-0.69,1.17-1.17c0.29-0.49,0.44-1.03,0.44-1.63c0-0.59-0.15-1.14-0.44-1.63s-0.68-0.88-1.17-1.17
		c-0.49-0.29-1.03-0.44-1.63-0.44c-0.59,0-1.13,0.15-1.62,0.44c-0.49,0.29-0.88,0.68-1.17,1.17s-0.44,1.03-0.44,1.63
		c0,0.6,0.15,1.14,0.44,1.63c0.29,0.49,0.69,0.88,1.17,1.17S255.12,93.46,255.72,93.46z"/>
</g>
</svg>
